<svg width="25" height="24" viewBox="0 0 25 24" fill="none" xmlns="http://www.w3.org/2000/svg">
<path d="M1.17139 7L1.17139 3L23.1714 3V21H15.1714" stroke="#14142B" stroke-width="2"/>
<path d="M0.983694 11.6569C2.16559 11.6569 3.33591 11.8897 4.42785 12.342C5.51978 12.7943 6.51193 13.4572 7.34766 14.293C8.18338 15.1287 8.84632 16.1208 9.29861 17.2128C9.7509 18.3047 9.9837 19.475 9.9837 20.6569" stroke="#14142B" stroke-width="2"/>
<path d="M0.984473 16.173C1.53861 16.173 2.08732 16.2821 2.59928 16.4942C3.11123 16.7063 3.57641 17.0171 3.96824 17.4089C4.36007 17.8007 4.67089 18.2659 4.88295 18.7779C5.09501 19.2898 5.20416 19.8385 5.20416 20.3927" stroke="#14142B" stroke-width="2"/>
<circle cx="1" cy="20.4687" r="0.5" transform="rotate(45 1 20.4687)" stroke="#14142B"/>
</svg>
