<svg width="24" height="24" viewBox="0 0 24 24" fill="none" xmlns="http://www.w3.org/2000/svg">
<g clip-path="url(#clip0_365_9195)">
<path d="M10.1899 11.4607C9.61992 11.4607 9.16992 11.9357 9.16992 12.5152C9.16992 13.0947 9.62992 13.5697 10.1899 13.5697C10.7599 13.5697 11.2099 13.0947 11.2099 12.5152C11.2199 11.9357 10.7599 11.4607 10.1899 11.4607ZM13.8399 11.4607C13.2699 11.4607 12.8199 11.9357 12.8199 12.5152C12.8199 13.0947 13.2799 13.5697 13.8399 13.5697C14.4099 13.5697 14.8599 13.0947 14.8599 12.5152C14.8599 11.9357 14.4099 11.4607 13.8399 11.4607Z" fill="#333333"/>
<path d="M18.7 3.49023H5.3C4.17 3.49023 3.25 4.36423 3.25 5.44723V18.2912C3.25 19.3742 4.17 20.2482 5.3 20.2482H16.64L16.11 18.4907L17.39 19.6212L18.6 20.6852L20.75 22.4902V5.44723C20.75 4.36423 19.83 3.49023 18.7 3.49023ZM14.84 15.8972C14.84 15.8972 14.48 15.4887 14.18 15.1277C15.49 14.7762 15.99 13.9972 15.99 13.9972C15.58 14.2537 15.19 14.4342 14.84 14.5577C14.34 14.7572 13.86 14.8902 13.39 14.9662C12.5336 15.116 11.6552 15.1128 10.8 14.9567C10.2979 14.8634 9.80587 14.7267 9.33 14.5482C9.07916 14.4566 8.83525 14.3487 8.6 14.2252C8.57 14.2062 8.54 14.1967 8.51 14.1777C8.49 14.1682 8.48 14.1587 8.47 14.1492C8.29 14.0542 8.19 13.9877 8.19 13.9877C8.19 13.9877 8.67 14.7477 9.94 15.1087C9.64 15.4697 9.27 15.8972 9.27 15.8972C7.06 15.8307 6.22 14.4532 6.22 14.4532C6.22 11.3942 7.66 8.91473 7.66 8.91473C9.1 7.88873 10.47 7.91723 10.47 7.91723L10.57 8.03123C8.77 8.52523 7.94 9.27573 7.94 9.27573C7.94 9.27573 8.16 9.16173 8.53 9.00023C9.6 8.55373 10.45 8.43023 10.8 8.40173C10.86 8.39223 10.91 8.38273 10.97 8.38273C12.7041 8.15976 14.4677 8.47286 16 9.27573C16 9.27573 15.21 8.56323 13.51 8.06923L13.65 7.91723C13.65 7.91723 15.02 7.88873 16.46 8.91473C16.46 8.91473 17.9 11.3942 17.9 14.4532C17.9 14.4532 17.05 15.8307 14.84 15.8972Z" fill="#333333"/>
</g>
<defs>
<clipPath id="clip0_365_9195">
<rect width="20" height="19" fill="white" transform="translate(2 3.49023)"/>
</clipPath>
</defs>
</svg>
