<svg width="24" height="24" viewBox="0 0 24 24" fill="none" xmlns="http://www.w3.org/2000/svg">
<path fill-rule="evenodd" clip-rule="evenodd" d="M8.14123 2.6963C9.13935 2.65035 9.45758 2.64014 12.0001 2.64014C14.5426 2.64014 14.8608 2.6512 15.8581 2.6963C16.8553 2.74139 17.5361 2.90051 18.1317 3.13111C18.7554 3.36681 19.3213 3.73525 19.7893 4.21176C20.2658 4.6789 20.6334 5.2439 20.8682 5.86847C21.0997 6.4641 21.2579 7.14482 21.3039 8.14038C21.3498 9.1402 21.36 9.45843 21.36 12.0001C21.36 14.5426 21.349 14.8608 21.3039 15.8589C21.2588 16.8545 21.0997 17.5352 20.8682 18.1309C20.6334 18.7555 20.2652 19.3214 19.7893 19.7893C19.3213 20.2658 18.7554 20.6334 18.1317 20.8682C17.5361 21.0997 16.8553 21.2579 15.8598 21.3039C14.8608 21.3498 14.5426 21.36 12.0001 21.36C9.45758 21.36 9.13935 21.349 8.14123 21.3039C7.14568 21.2588 6.46495 21.0997 5.86932 20.8682C5.24469 20.6333 4.67875 20.2651 4.21091 19.7893C3.73472 19.3218 3.36623 18.7562 3.13111 18.1317C2.90051 17.5361 2.74225 16.8553 2.6963 15.8598C2.65035 14.86 2.64014 14.5417 2.64014 12.0001C2.64014 9.45758 2.6512 9.13935 2.6963 8.14209C2.74139 7.14482 2.90051 6.4641 3.13111 5.86847C3.36657 5.24397 3.73535 4.67832 4.21176 4.21091C4.67894 3.73483 5.24431 3.36634 5.86847 3.13111C6.4641 2.90051 7.14482 2.74225 8.14038 2.6963H8.14123ZM15.7824 4.38109C14.7953 4.33599 14.4992 4.32663 12.0001 4.32663C9.50098 4.32663 9.20486 4.33599 8.21782 4.38109C7.30479 4.42278 6.80957 4.57509 6.47942 4.70358C6.0429 4.87376 5.73062 5.07543 5.40302 5.40302C5.09248 5.70514 4.85349 6.07293 4.70358 6.47942C4.57509 6.80957 4.42278 7.30479 4.38109 8.21782C4.33599 9.20486 4.32663 9.50098 4.32663 12.0001C4.32663 14.4992 4.33599 14.7953 4.38109 15.7824C4.42278 16.6954 4.57509 17.1906 4.70358 17.5208C4.85334 17.9266 5.09244 18.2951 5.40302 18.5971C5.70509 18.9077 6.07354 19.1468 6.47942 19.2966C6.80957 19.4251 7.30479 19.5774 8.21782 19.6191C9.20486 19.6642 9.50013 19.6735 12.0001 19.6735C14.5 19.6735 14.7953 19.6642 15.7824 19.6191C16.6954 19.5774 17.1906 19.4251 17.5208 19.2966C17.9573 19.1264 18.2696 18.9247 18.5971 18.5971C18.9077 18.2951 19.1468 17.9266 19.2966 17.5208C19.4251 17.1906 19.5774 16.6954 19.6191 15.7824C19.6642 14.7953 19.6735 14.4992 19.6735 12.0001C19.6735 9.50098 19.6642 9.20486 19.6191 8.21782C19.5774 7.30479 19.4251 6.80957 19.2966 6.47942C19.1264 6.0429 18.9247 5.73062 18.5971 5.40302C18.295 5.0925 17.9272 4.85352 17.5208 4.70358C17.1906 4.57509 16.6954 4.42278 15.7824 4.38109ZM10.8046 14.8855C11.4722 15.1634 12.2157 15.2009 12.9079 14.9916C13.6002 14.7823 14.1983 14.3392 14.6001 13.7378C15.0019 13.1365 15.1825 12.4144 15.111 11.6947C15.0395 10.975 14.7204 10.3025 14.2082 9.79199C13.8816 9.46565 13.4868 9.21577 13.0521 9.06034C12.6174 8.90491 12.1536 8.84779 11.6942 8.89311C11.2347 8.93842 10.7911 9.08504 10.3951 9.3224C9.99915 9.55976 9.66073 9.88197 9.40423 10.2658C9.14774 10.6497 8.97954 11.0856 8.91174 11.5423C8.84395 11.9989 8.87825 12.4649 9.01217 12.9067C9.14609 13.3485 9.37631 13.7552 9.68624 14.0973C9.99617 14.4395 10.3781 14.7087 10.8046 14.8855ZM8.59817 8.59817C9.04492 8.15142 9.57528 7.79705 10.159 7.55527C10.7427 7.31349 11.3683 7.18905 12.0001 7.18905C12.6319 7.18905 13.2575 7.31349 13.8412 7.55527C14.4249 7.79705 14.9553 8.15142 15.402 8.59817C15.8487 9.04492 16.2031 9.57528 16.4449 10.159C16.6867 10.7427 16.8111 11.3683 16.8111 12.0001C16.8111 12.6319 16.6867 13.2575 16.4449 13.8412C16.2031 14.4249 15.8487 14.9553 15.402 15.402C14.4998 16.3042 13.2761 16.8111 12.0001 16.8111C10.7241 16.8111 9.50041 16.3042 8.59817 15.402C7.69593 14.4998 7.18905 13.2761 7.18905 12.0001C7.18905 10.7241 7.69593 9.50041 8.59817 8.59817ZM17.8781 7.90553C17.9888 7.8011 18.0775 7.67552 18.1388 7.53622C18.2001 7.39692 18.2328 7.24674 18.235 7.09456C18.2372 6.94239 18.2089 6.79131 18.1517 6.65029C18.0945 6.50926 18.0095 6.38115 17.9019 6.27353C17.7943 6.16592 17.6662 6.08099 17.5252 6.02377C17.3841 5.96656 17.2331 5.93822 17.0809 5.94044C16.9287 5.94266 16.7785 5.97539 16.6392 6.03669C16.4999 6.09799 16.3744 6.18662 16.2699 6.29732C16.0668 6.51263 15.9556 6.79861 15.9599 7.09456C15.9643 7.39051 16.0837 7.67313 16.293 7.88243C16.5023 8.09172 16.7849 8.2112 17.0809 8.21552C17.3768 8.21983 17.6628 8.10864 17.8781 7.90553Z" fill="#333333"/>
</svg>
