<svg width="25" height="25" viewBox="0 0 25 25" fill="none" xmlns="http://www.w3.org/2000/svg">
<circle cx="12.1089" cy="12.1091" r="4" stroke="#14142B" stroke-width="2"/>
<path d="M10.3933 1.97206C11.1699 0.676091 13.0479 0.676093 13.8245 1.97206L14.5302 3.14983C14.9831 3.90562 15.8773 4.27599 16.7319 4.06181L18.0638 3.72805C19.5293 3.36079 20.8572 4.68871 20.49 6.15423L20.1562 7.48608C19.942 8.34076 20.3124 9.23491 21.0682 9.68781L22.246 10.3936C23.5419 11.1702 23.5419 13.0481 22.246 13.8247L21.0682 14.5305C20.3124 14.9834 19.942 15.8775 20.1562 16.7322L20.49 18.064C20.8572 19.5296 19.5293 20.8575 18.0638 20.4902L16.7319 20.1565C15.8773 19.9423 14.9831 20.3126 14.5302 21.0684L13.8245 22.2462C13.0479 23.5422 11.1699 23.5422 10.3933 22.2462L9.68756 21.0684C9.23466 20.3126 8.34051 19.9423 7.48584 20.1565L6.15398 20.4902C4.68846 20.8575 3.36055 19.5296 3.72781 18.064L4.06157 16.7322C4.27575 15.8775 3.90538 14.9834 3.14958 14.5305L1.97181 13.8247C0.675847 13.0481 0.675849 11.1702 1.97182 10.3936L3.14958 9.68781C3.90538 9.23491 4.27575 8.34075 4.06157 7.48608L3.72781 6.15422C3.36055 4.68871 4.68847 3.36079 6.15398 3.72805L7.48584 4.06181C8.34051 4.27599 9.23467 3.90562 9.68756 3.14982L10.3933 1.97206Z" stroke="#14142B" stroke-width="2"/>
</svg>
