<svg width="24" height="24" viewBox="0 0 24 24" fill="none" xmlns="http://www.w3.org/2000/svg">
<path d="M12.3983 3.04102C13.377 3.02588 14.3501 3.03485 15.3221 3.02588C15.381 4.17061 15.7926 5.33666 16.6306 6.14599C17.4668 6.97552 18.6497 7.35523 19.8006 7.48367V10.495C18.7221 10.4596 17.6385 10.2353 16.6597 9.77089C16.2335 9.57795 15.8364 9.32949 15.4477 9.07541C15.4427 11.2606 15.4567 13.4429 15.4337 15.6191C15.3754 16.6645 15.0304 17.7049 14.4224 18.5664C13.4443 20.0006 11.7465 20.9356 10.0028 20.9647C8.93322 21.0259 7.86476 20.7342 6.95335 20.1969C5.44293 19.3062 4.38008 17.6758 4.22528 15.9259C4.20578 15.5553 4.20279 15.184 4.21631 14.8131C4.35092 13.3902 5.05481 12.0289 6.14738 11.103C7.38578 10.0244 9.12055 9.51065 10.7448 9.81464C10.76 10.9224 10.7157 12.0289 10.7157 13.1367C9.97363 12.8966 9.10653 12.9639 8.45816 13.4143C7.9838 13.7268 7.62533 14.1866 7.43794 14.7228C7.28314 15.102 7.32745 15.5232 7.33642 15.9259C7.51422 17.153 8.69429 18.1845 9.954 18.0729C10.7891 18.0639 11.5895 17.5793 12.0247 16.8698C12.1655 16.6213 12.3231 16.3673 12.3315 16.0751C12.405 14.7374 12.3758 13.4053 12.3848 12.0676C12.391 9.05298 12.3758 6.04672 12.3988 3.04158L12.3983 3.04102Z" fill="#333333"/>
</svg>
