<svg width="24" height="24" viewBox="0 0 24 24" fill="none" xmlns="http://www.w3.org/2000/svg">
<path d="M21.7624 7.33721C21.647 6.92569 21.4223 6.55313 21.1121 6.25912C20.7932 5.95607 20.4023 5.73929 19.9763 5.62924C18.3821 5.20904 11.9951 5.20904 11.9951 5.20904C9.3324 5.17875 6.67037 5.31199 4.02402 5.60802C3.59804 5.7262 3.20787 5.94782 2.8882 6.25318C2.57412 6.55538 2.34661 6.92804 2.22777 7.33636C1.94228 8.87433 1.80357 10.4359 1.81351 12.0002C1.80333 13.563 1.94169 15.1241 2.22777 16.6639C2.34407 17.0706 2.57072 17.4415 2.88566 17.7412C3.2006 18.0408 3.59278 18.2573 4.02402 18.3719C5.63945 18.7913 11.9951 18.7913 11.9951 18.7913C14.6612 18.8216 17.3266 18.6884 19.9763 18.3923C20.4023 18.2822 20.7932 18.0655 21.1121 17.7624C21.4262 17.4627 21.6495 17.0901 21.7615 16.6843C22.0545 15.1469 22.1969 13.5847 22.1868 12.0197C22.2089 10.448 22.0666 8.87842 21.7624 7.33636V7.33721ZM9.96454 14.9067V9.09441L15.2786 12.001L9.96454 14.9067Z" fill="#333333"/>
</svg>
